<svg width="16" height="16" version="1.1" viewBox="0 0 16 16" xmlns="http://www.w3.org/2000/svg">
 <path d="m8 0c-0.40588 0-0.81209 0.15581-1.1231 0.4668l-1.4122 1.4121h-1.9981c-0.87965 0-1.588 0.70828-1.588 1.5879v1.998l-1.4122 1.4121c-0.622 0.62198-0.622 1.6241 0 2.2461l1.4122 1.4121v1.998c0 0.87961 0.70831 1.5879 1.588 1.5879h1.9981l1.4122 1.4121c0.622 0.62198 1.6242 0.62198 2.2462 0l1.4122-1.4121h1.9981c0.87964 0 1.588-0.70828 1.588-1.5879v-1.998l1.4122-1.4121c0.622-0.62198 0.622-1.6241 0-2.2461l-1.4122-1.4121v-1.998c0-0.87961-0.70831-1.5879-1.588-1.5879h-1.9981l-1.4122-1.4121c-0.311-0.31099-0.71721-0.4668-1.1231-0.4668zm0 3c0.24787 0 0.49564 0.09523 0.68557 0.28516l0.89652 0.89648h1.2676c0.53721 0 0.96879 0.43157 0.96879 0.96875v1.2676l0.89652 0.89648c0.37986 0.37985 0.37986 0.99125 0 1.3711l-0.89652 0.89648v1.2676c0 0.53718-0.43158 0.96875-0.96879 0.96875h-1.2676l-0.89652 0.89648c-0.37986 0.37985-0.99129 0.37985-1.3711 0l-0.89652-0.89648h-1.2676c-0.5372 0-0.96879-0.43157-0.96879-0.96875v-1.2676l-0.89652-0.89648c-0.37986-0.37985-0.37986-0.99125 0-1.3711l0.89652-0.89648v-1.2676c0-0.53718 0.43158-0.96875 0.96879-0.96875h1.2676l0.89652-0.89648c0.18993-0.18992 0.4377-0.28516 0.68557-0.28516z" fill="#95e1d3" stroke-width=".76512"/>
</svg>
